<svg width="80" height="80" viewBox="0 0 80 80" fill="none" xmlns="http://www.w3.org/2000/svg">
<path d="M40.3442 23.3359C46.1038 23.4818 50.9547 27.2807 52.6694 32.502C55.5022 32.5449 58.5061 32.9229 61.0112 34.1113C62.5981 34.8642 64.05 35.9737 65.0933 37.5762C66.1404 39.1849 66.6665 41.1235 66.6665 43.3516C66.6664 51.9341 62.5152 61.2471 52.7788 63.8115C51.1698 69.2125 46.232 73.179 40.3442 73.3281L40.0005 73.333H26.6665L26.3228 73.3281C19.118 73.1456 13.3335 67.2478 13.3335 59.999V36.665C13.3337 29.3015 19.303 23.3322 26.6665 23.332H40.0005L40.3442 23.3359ZM26.6665 28.332C22.0644 28.3322 18.3337 32.0629 18.3335 36.665V59.999C18.3335 64.6013 22.0643 68.3328 26.6665 68.333H40.0005C44.6027 68.3328 48.3335 64.6013 48.3335 59.999V36.665C48.3333 32.0629 44.6026 28.3322 40.0005 28.332H26.6665ZM53.3335 58.3379C58.8903 55.9174 61.6664 49.9324 61.6665 43.3516C61.6665 41.9284 61.3389 40.9737 60.9028 40.3037C60.4626 39.6277 59.8007 39.0716 58.8677 38.6289C57.4239 37.9441 55.5069 37.6116 53.3335 37.5234V58.3379Z" fill="#B1B1B1"/>
<path d="M23.3307 8.33398C23.3307 8.33398 19.6731 11.0097 19.9974 13.334C20.3997 16.2169 27.0143 13.7777 26.6641 16.6673C26.3817 18.997 21.6641 20.0007 21.6641 20.0007M34.9998 8.33398C34.9998 8.33398 32.1267 9.36613 31.6665 11.6673C31.2063 13.9685 35.4601 14.3661 34.9998 16.6673C34.6388 18.4725 31.6665 20.0007 31.6665 20.0007M46.6665 8.33398C46.6665 8.33398 40.8559 8.88524 39.9998 11.6673C39.0428 14.7778 46.9978 15.7651 44.9998 18.334C44.1063 19.4828 41.6665 20.0007 41.6665 20.0007" stroke="#B1B1B1" stroke-width="3.33333" stroke-linecap="round"/>
</svg>
