<svg width="461" height="461" viewBox="0 0 461 461" fill="none" xmlns="http://www.w3.org/2000/svg">
<path d="M177.02 124.242L225.928 134.333L266.606 125.415L296.233 125.415L305.639 126.823L323.744 132.221L333.385 135.037L339.028 137.383L348.433 142.312L363.717 157.096L375.709 171.411L380.177 179.625L384.879 190.185L389.347 199.572L390.993 206.847L394.99 232.192L396.871 257.772L398.047 276.076L412.155 301.891L412.625 304.237L412.86 310.104L408.393 322.073L404.396 327.001L398.752 333.572L395.931 336.857L391.541 340.143L381.666 345.775L379.941 345.775L376.885 345.305L373.828 344.601L371.712 343.193L370.301 341.081L369.831 332.868L370.771 324.654L373.828 317.614L364.658 307.757L357.604 300.013L354.782 296.024L348.198 292.504L305.639 274.199L299.995 273.964L295.293 274.903L278.363 279.127L261.904 280.535L244.503 277.954L242.387 278.892L245.444 329.347L244.504 335.684L240.271 343.663L235.098 349.295L230.866 351.876L226.398 353.519L214.406 354.458L203.59 354.223L199.593 352.815L196.066 350.468L194.89 347.652L194.42 344.836L195.36 341.316L196.536 338.265L202.649 333.102L208.058 328.878L188.776 287.81L181.252 281.708L128.582 260.118L120.822 254.486L116.12 247.446L97.5439 247.681L90.2547 247.681L83.9061 246.742L77.7925 243.691L75.4412 243.456L47.6952 245.568L40.8763 243.741L32.1763 236.886L29.5898 234.539L26.0628 230.08L21.8303 223.509L21.5952 222.101L21.8303 219.989L22.5357 218.346L26.0628 215.296L38.2898 206.613L40.8763 186.665L44.8736 181.737L59.452 168.83L60.1574 151.229L60.8628 147.944L62.2736 145.128L65.5655 142.546L68.6223 141.842L72.1493 142.546L77.5574 147.944L78.9682 147.944L80.6142 147.24L82.9655 138.557L83.4358 136.914L85.3169 135.506L88.8806 134.723L93.0763 135.975L108.36 145.832L115.414 145.597L153.271 126.354L169.025 123.772L177.02 124.242Z" fill="#FFA600"/>
<path d="M122.706 262.699L177.257 285.462L142.222 333.101L125.057 346.243L114.006 348.355L89.552 350.233L81.7925 349.763L76.3844 348.355L74.0331 346.243L72.6223 341.315L74.0331 336.152L81.7925 330.285L98.9574 323.245L113.301 301.186L122.706 262.699Z" fill="#FFA600"/>
<path d="M302.352 277.952L349.614 298.134L341.385 306.348L323.279 335.682L320.693 339.203L317.636 341.784L309.406 347.416L304.704 349.059L280.014 349.998L273.901 348.355L271.549 346.947L268.493 344.835L268.022 342.957V339.907L269.668 334.509L275.782 328.642L293.652 320.663L303.058 300.012L302.352 277.952Z" fill="#FFA600"/>
</svg>
