<svg width="460" height="460" viewBox="0 0 460 460" fill="none" xmlns="http://www.w3.org/2000/svg">
<path d="M30 176.496V157.739C30 155.334 31.8309 153.325 34.2251 153.103L56.3005 151.049C60.4663 150.662 64.2351 148.53 67.0625 145.446C80.9393 130.311 97.4301 124.018 122.367 122.961C122.367 122.961 130.001 109.22 139.925 111.511C149.849 113.801 146.795 126.015 146.795 126.015C175.92 118.934 193.414 116.551 223.837 117.374C226.911 117.457 230.002 117.154 233.009 116.51C344.492 92.6393 457.789 142.055 423.897 349.174H379.622C346.126 287.893 315.488 278.232 254.43 274.364C246.085 240.323 242.019 228.65 235.345 214.821C247.674 273.153 246.119 301.83 235.345 349.174H193.555C184.307 263.462 148.045 252.989 34.5474 184.491C31.7598 182.809 30 179.752 30 176.496Z" fill="#FFA600"/>
<path d="M103.283 349.174C109.571 306.668 112.173 281.464 112.068 239.751C144.004 259.206 156.278 269.582 165.879 287.083C159.337 311.399 154.852 320.521 140.688 349.174H103.283Z" fill="#FFA600"/>
<path d="M323.933 349.174H279.621C284.649 325.805 288.541 309.949 293.667 288.06C321.478 290.02 331.509 298.71 347.215 315.417C338.04 327.825 332.737 337.064 323.933 349.174Z" fill="#FFA600"/>
</svg>
