<svg preserveAspectRatio="none" width="100%" height="100%" overflow="visible" style="display: block;" viewBox="0 0 24 24" fill="none" xmlns="http://www.w3.org/2000/svg">
<g id="Image Add / undefined">
<path id="Vector" d="M18.7495 4C20.5444 4 21.9994 5.45507 21.9994 7.25V18.75C21.9994 20.5449 20.5444 22 18.7495 22H7.24945C5.45452 22 3.99945 20.5449 3.99945 18.75V13.2499C3.99945 12.8362 4.33375 12.5001 4.74752 12.4996C5.16287 12.499 5.49954 12.8359 5.49953 13.2513L5.49945 18.75C5.49945 18.9584 5.53588 19.1583 5.60271 19.3437L11.4253 13.643C12.2584 12.8273 13.567 12.7885 14.4453 13.5266L14.5737 13.6431L20.3958 19.3447C20.4628 19.159 20.4994 18.9588 20.4994 18.75V7.25C20.4994 6.2835 19.716 5.5 18.7495 5.5L13.7494 5.49933C13.3353 5.49928 12.9995 5.16351 12.9995 4.74933C12.9995 4.33508 13.3354 3.99928 13.7496 3.99933L18.7495 4ZM12.5583 14.644L12.4747 14.7148L6.6679 20.4011C6.84985 20.4651 7.04558 20.5 7.24945 20.5H18.7495C18.953 20.5 19.1483 20.4653 19.3299 20.4014L13.5242 14.7148C13.2591 14.4553 12.8496 14.4316 12.5583 14.644ZM16.2516 7.5C17.4954 7.5 18.5036 8.50831 18.5036 9.75212C18.5036 10.9959 17.4954 12.0042 16.2516 12.0042C15.0078 12.0042 13.9995 10.9959 13.9995 9.75212C13.9995 8.50831 15.0078 7.5 16.2516 7.5ZM16.2516 9C15.8362 9 15.4995 9.33673 15.4995 9.75212C15.4995 10.1675 15.8362 10.5042 16.2516 10.5042C16.667 10.5042 17.0036 10.1675 17.0036 9.75212C17.0036 9.33673 16.667 9 16.2516 9ZM6.49945 2.99923L6.40957 3.00729C6.20548 3.04433 6.04455 3.20527 6.00751 3.40936L5.99945 3.49923L5.9991 5.99923L3.4971 6L3.40722 6.00806C3.20313 6.0451 3.0422 6.20603 3.00516 6.41012L2.9971 6.5L3.00516 6.58988C3.0422 6.79397 3.20313 6.9549 3.40722 6.99194L3.4971 7L6.0001 6.99923L6.00056 9.50348L6.00861 9.59336C6.04566 9.79745 6.20659 9.95839 6.41068 9.99543L6.50056 10.0035L6.59043 9.99543C6.79453 9.95839 6.95546 9.79745 6.9925 9.59336L7.00056 9.50348L7.0001 6.99923L9.50402 7L9.59389 6.99194C9.79798 6.9549 9.95892 6.79397 9.99596 6.58988L10.0041 6.5L9.99596 6.41012C9.95892 6.20603 9.79798 6.0451 9.59389 6.00806L9.50402 6L6.9991 5.99923L6.99945 3.49923L6.99139 3.40936C6.95435 3.20527 6.79342 3.04433 6.58933 3.00729L6.49945 2.99923Z" fill="#FAFAFA"/>
</g>
</svg>
