<svg width="24" height="24" viewBox="0 0 24 24" fill="none" xmlns="http://www.w3.org/2000/svg">
<path d="M15.0333 3H8.96671C8.31572 3 7.6914 3.2586 7.23108 3.71892L3.71892 7.23108C3.2586 7.6914 3 8.31572 3 8.96671V15.0333C3 15.6843 3.2586 16.3086 3.71892 16.7689L7.23108 20.2811C7.6914 20.7414 8.31572 21 8.9667 21H15.0333C15.6843 21 16.3086 20.7414 16.7689 20.2811L20.2811 16.7689C20.7414 16.3086 21 15.6843 21 15.0333V8.96671C21 8.31572 20.7414 7.6914 20.2811 7.23108L16.7689 3.71892C16.3086 3.2586 15.6843 3 15.0333 3Z" stroke="#5F5F5F" stroke-width="2"/>
<path d="M12.001 15.8643C12.0928 15.8643 12.1641 15.8675 12.2188 15.8721C12.2235 15.9269 12.2275 15.9989 12.2275 16.0918C12.2275 16.1837 12.2234 16.255 12.2188 16.3096C12.1641 16.3142 12.0929 16.3184 12.001 16.3184C11.9081 16.3184 11.8361 16.3143 11.7812 16.3096C11.7766 16.255 11.7734 16.1837 11.7734 16.0918C11.7734 15.999 11.7765 15.9269 11.7812 15.8721C11.8361 15.8674 11.9082 15.8643 12.001 15.8643Z" fill="#5F5F5F" stroke="#5F5F5F" stroke-width="2"/>
<path d="M12.0039 12.1631C12.1468 11.5066 12.2276 10.4234 12.2275 8.72754C12.2275 8.20775 12.2034 7.83788 12.1631 7.57617C12.1407 7.43114 12.114 7.33706 12.0947 7.27832C12.07 7.27702 12.0392 7.27344 12.001 7.27344C11.9721 7.27344 11.948 7.27626 11.9287 7.27734C11.9041 7.34238 11.8679 7.45806 11.8389 7.65234C11.7979 7.92656 11.7734 8.30569 11.7734 8.82715C11.7734 10.4819 11.862 11.5306 12.0039 12.1631Z" fill="#5F5F5F" stroke="#5F5F5F" stroke-width="2"/>
</svg>
