<svg width="24" height="24" viewBox="0 0 24 24" fill="none" xmlns="http://www.w3.org/2000/svg">
<g clip-path="url(#clip0_3158_10045)">
<path d="M9 14C4.58172 14 1 16.2386 1 19M9 11C6.23858 11 4 8.76142 4 6C4 3.23858 6.23858 1 9 1C11.7614 1 14 3.23858 14 6C14 8.76142 11.7614 11 9 11Z" stroke="#FAFAFA" stroke-width="2" stroke-linecap="round" stroke-linejoin="round"/>
<path d="M15.32 11.6267C15.3828 11.2653 15.711 11 16.095 11H17.9054C18.2894 11 18.6175 11.2653 18.6804 11.6267L18.8291 12.4807C18.8731 12.73 19.0476 12.938 19.2794 13.0607C19.3311 13.0873 19.382 13.116 19.433 13.1453C19.6599 13.276 19.9357 13.3167 20.1835 13.228L21.0332 12.924C21.2074 12.8615 21.3991 12.86 21.5742 12.9198C21.7494 12.9796 21.8966 13.0969 21.9897 13.2507L22.8946 14.7487C22.9875 14.9025 23.0202 15.0828 22.987 15.2574C22.9538 15.4321 22.8567 15.5899 22.7131 15.7027L22.0128 16.254C21.8082 16.4147 21.707 16.6627 21.7126 16.9153C21.7135 16.972 21.7135 17.0287 21.7126 17.0853C21.707 17.3373 21.8082 17.5853 22.0128 17.746L22.7138 18.2973C23.0098 18.5307 23.0866 18.934 22.8953 19.2507L21.989 20.7487C21.8961 20.9024 21.749 21.0197 21.574 21.0796C21.399 21.1396 21.2073 21.1383 21.0332 21.076L20.1835 20.772C19.9357 20.6833 19.6599 20.724 19.4323 20.8547C19.3817 20.8841 19.3305 20.9125 19.2787 20.94C19.0476 21.062 18.8731 21.27 18.8291 21.5193L18.6804 22.3733C18.6175 22.7353 18.2894 23 17.9054 23H16.0943C15.7103 23 15.3828 22.7347 15.3193 22.3733L15.1706 21.5193C15.1273 21.27 14.9527 21.062 14.7209 20.9393C14.6692 20.9121 14.618 20.8838 14.5673 20.8547C14.3404 20.724 14.0647 20.6833 13.8161 20.772L12.9664 21.076C12.7924 21.1383 12.6008 21.1397 12.4258 21.0799C12.2508 21.0201 12.1037 20.903 12.0106 20.7493L11.1051 19.2513C11.0122 19.0975 10.9794 18.9172 11.0127 18.7426C11.0459 18.5679 11.143 18.4101 11.2866 18.2973L11.9876 17.746C12.1914 17.586 12.2927 17.3373 12.2878 17.0853C12.2867 17.0287 12.2867 16.972 12.2878 16.9153C12.2927 16.662 12.1914 16.4147 11.9876 16.254L11.2866 15.7027C11.1431 15.5899 11.0462 15.4323 11.0129 15.2577C10.9797 15.0832 11.0123 14.9031 11.1051 14.7493L12.0106 13.2513C12.1036 13.0974 12.2508 12.98 12.426 12.9201C12.6011 12.8601 12.7929 12.8615 12.9671 12.924L13.8161 13.228C14.0647 13.3167 14.3404 13.276 14.5673 13.1453C14.6176 13.116 14.6693 13.088 14.7209 13.06C14.9527 12.938 15.1273 12.73 15.1706 12.4807L15.32 11.6267Z" stroke="#FAFAFA" stroke-width="1.5" stroke-linecap="round" stroke-linejoin="round"/>
<path d="M19.3327 17.0003C19.3327 17.6192 19.0868 18.2127 18.6493 18.6502C18.2117 19.0878 17.6182 19.3337 16.9993 19.3337C16.3805 19.3337 15.787 19.0878 15.3494 18.6502C14.9118 18.2127 14.666 17.6192 14.666 17.0003C14.666 16.3815 14.9118 15.788 15.3494 15.3504C15.787 14.9128 16.3805 14.667 16.9993 14.667C17.6182 14.667 18.2117 14.9128 18.6493 15.3504C19.0868 15.788 19.3327 16.3815 19.3327 17.0003Z" stroke="#FAFAFA" stroke-width="1.5" stroke-linecap="round" stroke-linejoin="round"/>
</g>
<defs>
<clipPath id="clip0_3158_10045">
<rect width="24" height="24" fill="white"/>
</clipPath>
</defs>
</svg>
