<svg width="21" height="21" viewBox="0 0 21 21" fill="none" xmlns="http://www.w3.org/2000/svg">
<path d="M10.2455 20.5009C15.8505 20.5009 20.491 15.8602 20.491 10.2553C20.491 4.66044 15.8404 0.00976562 10.2355 0.00976562C4.64062 0.00976562 0 4.66044 0 10.2553C0 15.8602 4.65067 20.5009 10.2455 20.5009Z" fill="#B486F9"/>
<path d="M6.93039 14.7456L5.49401 15.288C5.27302 15.3684 5.02191 15.1474 5.13239 14.8863L5.71499 13.5201L12.4851 6.75009L13.7206 7.98558L6.93039 14.7456ZM14.3434 7.36281L13.1079 6.13737L13.8712 5.37397C14.2127 5.05254 14.5944 5.01237 14.9058 5.32375L15.1369 5.56482C15.4583 5.87621 15.4382 6.26795 15.0967 6.60947L14.3434 7.36281Z" fill="#FAFAFA"/>
</svg>
