<svg width="24" height="24" viewBox="0 0 24 24" fill="none" xmlns="http://www.w3.org/2000/svg">
<path d="M4 7.2002V16.8002C4 17.9203 4 18.4801 4.21799 18.9079C4.40973 19.2842 4.71547 19.5905 5.0918 19.7822C5.5192 20 6.07899 20 7.19691 20H16.8031C17.921 20 18.48 20 18.9074 19.7822C19.2837 19.5905 19.5905 19.2842 19.7822 18.9079C20 18.4805 20 17.9215 20 16.8036V7.19691C20 6.07899 20 5.5192 19.7822 5.0918C19.5905 4.71547 19.2837 4.40973 18.9074 4.21799C18.4796 4 17.9203 4 16.8002 4H7.2002C6.08009 4 5.51962 4 5.0918 4.21799C4.71547 4.40973 4.40973 4.71547 4.21799 5.0918C4 5.51962 4 6.08009 4 7.2002Z" fill="#FFA500" stroke="#FFA500" stroke-width="1.5" stroke-linecap="round" stroke-linejoin="round"/>
<path d="M11.104 15.7112C11.3109 15.7112 11.492 15.6336 11.6472 15.4784L18 9.10622C18.1552 8.95153 18.2328 8.76735 18.2328 8.55369C18.2328 8.34002 18.1552 8.15559 18 8.00039C17.8448 7.84518 17.6637 7.76758 17.4568 7.76758C17.2498 7.76758 17.0688 7.84518 16.9136 8.00039L11.104 13.81L8.34909 11.0357C8.19388 10.881 8.00971 10.8034 7.79656 10.8029C7.58341 10.8024 7.39898 10.88 7.24325 11.0357C7.08753 11.1914 7.00657 11.3759 7.00036 11.589C6.99415 11.8022 7.06865 11.9863 7.22385 12.1415L10.5608 15.4784C10.716 15.6336 10.897 15.7112 11.104 15.7112Z" fill="#FAFAFA"/>
</svg>
