<svg width="24" height="24" viewBox="0 0 24 24" fill="none" xmlns="http://www.w3.org/2000/svg">
<path d="M12.4594 5.06504C12.7503 4.84567 13.0387 4.6772 13.2968 4.55852C13.3749 6.47293 14.3109 7.91246 15.2118 9.18398C15.2942 9.30028 15.376 9.4149 15.4568 9.52819C16.4319 10.8949 17.267 12.0652 17.3581 13.6146C17.463 15.3983 17.0181 16.9063 16.1557 17.9558C15.3036 18.9926 13.9896 19.65 12.1999 19.65C10.3447 19.65 8.95054 19.1741 7.97754 18.3759C7.0091 17.5813 6.39015 16.4123 6.18342 14.8911C5.98002 13.3943 6.34224 12.3305 6.73353 11.6483C6.81049 11.5141 6.88906 11.3939 6.96545 11.2876L7.24895 11.8259C7.74488 12.7679 8.89545 13.151 9.85706 12.6944C11.0322 12.1364 11.2829 10.7035 10.9098 9.69744C10.6487 8.99359 10.5098 8.1341 10.8118 7.27357C11.1505 6.30866 11.7936 5.56728 12.4594 5.06504ZM6.71563 9.59079L6.71346 9.59242L6.7099 9.59511L6.70057 9.60227C6.69338 9.60784 6.68426 9.61499 6.67338 9.62376C6.65162 9.64127 6.62273 9.66523 6.58788 9.69569C6.51823 9.75659 6.42446 9.84378 6.31603 9.95794C6.09944 10.1859 5.82221 10.5238 5.56249 10.9766C5.03852 11.8901 4.59821 13.2515 4.84571 15.0728C5.08988 16.8696 5.8444 18.3721 7.1213 19.4196C8.39366 20.4634 10.1167 21 12.1999 21C14.3487 21 16.0632 20.1949 17.1987 18.8129C18.3239 17.4437 18.8259 15.5767 18.7057 13.5354C18.5906 11.5772 17.5239 10.0915 16.5818 8.77911C16.4908 8.65239 16.401 8.52728 16.3134 8.40352C15.2856 6.953 14.474 5.61591 14.6712 3.74577C14.6913 3.55549 14.6296 3.36562 14.5017 3.22342C14.3736 3.08121 14.1912 3 13.9999 3C13.6561 3 13.2627 3.1064 12.8818 3.26639C12.4893 3.43131 12.0635 3.67276 11.6465 3.98725C10.8143 4.61494 9.9822 5.56107 9.53803 6.82643C9.09496 8.08867 9.31943 9.2918 9.64397 10.1669C9.8571 10.7415 9.62595 11.3097 9.27803 11.4748C8.97033 11.621 8.60217 11.4984 8.44347 11.197L7.71689 9.81707C7.62496 9.64247 7.46123 9.51684 7.26879 9.47323C7.07636 9.42963 6.87384 9.47288 6.71563 9.59079Z" fill="#E43620"/>
</svg>
