<svg width="24" height="24" viewBox="0 0 24 24" fill="none" xmlns="http://www.w3.org/2000/svg">
<path d="M6.8 6.06C6.8 5.72583 6.93275 5.40534 7.16905 5.16905C7.40534 4.93275 7.72583 4.8 8.06 4.8H13.64C13.9742 4.8 14.2947 4.93275 14.531 5.16905C14.7673 5.40534 14.9 5.72583 14.9 6.06V8.4C14.9 8.63869 14.9948 8.86761 15.1636 9.0364C15.3324 9.20518 15.5613 9.3 15.8 9.3C16.0387 9.3 16.2676 9.20518 16.4364 9.0364C16.6052 8.86761 16.7 8.63869 16.7 8.4V6.06C16.7 5.65815 16.6208 5.26025 16.4671 4.88899C16.3133 4.51773 16.0879 4.1804 15.8037 3.89625C15.5196 3.61211 15.1823 3.38671 14.811 3.23293C14.4398 3.07915 14.0418 3 13.64 3H8.06C7.24844 3 6.47011 3.32239 5.89625 3.89625C5.32239 4.47011 5 5.24844 5 6.06V17.94C5 18.7516 5.32239 19.5299 5.89625 20.1037C6.47011 20.6776 7.24844 21 8.06 21H13.64C14.4516 21 15.2299 20.6776 15.8037 20.1037C16.3776 19.5299 16.7 18.7516 16.7 17.94V15.6C16.7 15.3613 16.6052 15.1324 16.4364 14.9636C16.2676 14.7948 16.0387 14.7 15.8 14.7C15.5613 14.7 15.3324 14.7948 15.1636 14.9636C14.9948 15.1324 14.9 15.3613 14.9 15.6V17.94C14.9 18.2742 14.7673 18.5947 14.531 18.831C14.2947 19.0672 13.9742 19.2 13.64 19.2H8.06C7.72583 19.2 7.40534 19.0672 7.16905 18.831C6.93275 18.5947 6.8 18.2742 6.8 17.94V6.06Z" fill="#E43620"/>
<path d="M18.7633 8.6639C18.9321 8.49517 19.161 8.40039 19.3996 8.40039C19.6383 8.40039 19.8671 8.49517 20.0359 8.6639L22.7359 11.3639C22.9046 11.5327 22.9994 11.7616 22.9994 12.0002C22.9994 12.2388 22.9046 12.4677 22.7359 12.6365L20.0359 15.3365C19.8662 15.5004 19.6388 15.5912 19.4028 15.5891C19.1669 15.5871 18.9411 15.4924 18.7743 15.3255C18.6074 15.1587 18.5128 14.9329 18.5107 14.697C18.5087 14.461 18.5994 14.2336 18.7633 14.0639L19.927 12.9002H9.49961C9.26091 12.9002 9.032 12.8054 8.86321 12.6366C8.69443 12.4678 8.59961 12.2389 8.59961 12.0002C8.59961 11.7615 8.69443 11.5326 8.86321 11.3638C9.032 11.195 9.26091 11.1002 9.49961 11.1002H19.927L18.7633 9.9365C18.5946 9.76772 18.4998 9.53885 18.4998 9.3002C18.4998 9.06155 18.5946 8.83267 18.7633 8.6639Z" fill="#E43620"/>
</svg>
