<svg width="58" height="14" viewBox="0 0 58 14" fill="none" xmlns="http://www.w3.org/2000/svg">
<path d="M6.97583 -0.000453949C10.3838 -0.000453949 12.8478 1.91955 13.5998 4.36755H10.3998C9.85583 3.40755 8.62383 2.67155 7.03983 2.67155C4.67183 2.67155 2.91183 4.41555 2.91183 6.84755C2.91183 9.29555 4.67183 11.0715 7.03983 11.0715C9.07183 11.0715 10.4798 9.82355 10.7838 8.54355H6.79983V6.07955H13.8878V6.84755C13.8878 10.7995 10.9278 13.6955 6.97583 13.6955C2.95983 13.6955 -0.00017184 10.7995 -0.00017184 6.84755C-0.00017184 2.89555 2.95983 -0.000453949 6.97583 -0.000453949ZM22.0867 13.6955C18.0387 13.6955 15.0467 10.7995 15.0467 6.84755C15.0467 2.89555 18.0387 -0.000453949 22.0867 -0.000453949C26.1347 -0.000453949 29.1267 2.89555 29.1267 6.84755C29.1267 10.7995 26.1347 13.6955 22.0867 13.6955ZM22.0867 11.0715C24.4547 11.0715 26.2147 9.29555 26.2147 6.84755C26.2147 4.38355 24.4547 2.62355 22.0867 2.62355C19.7187 2.62355 17.9587 4.38355 17.9587 6.84755C17.9587 9.29555 19.7187 11.0715 22.0867 11.0715ZM30.8571 13.3755V0.335546H33.1771L37.6731 7.63155L42.1691 0.335546H44.4891V13.3755H41.5771V6.22355L38.5531 11.2315H36.7931L33.7691 6.22355V13.3755H30.8571ZM51.8666 0.0155458C54.7786 0.0155458 56.9546 1.79155 57.0986 4.27155H54.0906C53.9146 3.13555 53.0666 2.44755 51.6746 2.44755C50.3146 2.44755 49.5626 2.99155 49.5626 3.77555C49.5626 4.75155 50.5706 5.08755 53.1146 5.61555C56.1226 6.23955 57.1466 7.72755 57.1466 9.67955C57.1466 12.1755 54.7946 13.6955 51.8826 13.6955C48.6666 13.6955 46.3146 11.9515 46.1866 9.16755H49.1786C49.3386 10.4155 50.4266 11.2475 52.0906 11.2475C53.2746 11.2475 54.1546 10.6555 54.1546 9.80755C54.1546 8.76755 53.2746 8.35155 50.9546 7.91955C48.1226 7.39155 46.5866 6.22355 46.5866 3.77555C46.5866 1.42355 48.9226 0.0155458 51.8666 0.0155458Z" fill="#DEDEDE"/>
</svg>
