<svg width="24" height="24" viewBox="0 0 24 24" fill="none" xmlns="http://www.w3.org/2000/svg">
<path d="M9.21981 6.47092L11.7671 6.9965L13.8858 6.53204L15.4288 6.53204L15.9187 6.60537L16.8617 6.88649L17.3638 7.03317L17.6577 7.15539L18.1476 7.41207L18.9436 8.1821L19.5682 8.92768L19.8009 9.35547L20.0458 9.90549L20.2785 10.3944L20.3642 10.7733L20.5724 12.0933L20.6704 13.4256L20.7316 14.379L21.4664 15.7235L21.4909 15.8457L21.5032 16.1513L21.2705 16.7746L21.0623 17.0313L20.7684 17.3735L20.6214 17.5446L20.3928 17.7158L19.8785 18.0091L19.7886 18.0091L19.6294 17.9847L19.4702 17.948L19.36 17.8747L19.2865 17.7646L19.262 17.3369L19.311 16.9091L19.4702 16.5424L18.9926 16.029L18.6252 15.6257L18.4783 15.4179L18.1354 15.2346L15.9187 14.2812L15.6248 14.269L15.3799 14.3179L14.4981 14.5379L13.6408 14.6112L12.7346 14.4768L12.6244 14.5256L12.7836 17.1535L12.7346 17.4835L12.5141 17.8991L12.2447 18.1924L12.0243 18.3269L11.7916 18.4124L11.167 18.4613L10.6037 18.4491L10.3955 18.3758L10.2118 18.2536L10.1505 18.1069L10.1261 17.9602L10.175 17.7769L10.2363 17.618L10.5547 17.3491L10.8364 17.1291L9.83214 14.9901L9.44024 14.6723L6.697 13.5478L6.29286 13.2545L6.04793 12.8878L5.08044 12.9L4.7008 12.9L4.37014 12.8511L4.05172 12.6923L3.92926 12.68L2.48416 12.79L2.129 12.6949L1.67588 12.3378L1.54117 12.2156L1.35747 11.9833L1.13703 11.6411L1.12478 11.5678L1.13703 11.4578L1.17377 11.3722L1.35747 11.2133L1.99429 10.7611L2.129 9.72215L2.3372 9.46547L3.09649 8.79323L3.13323 7.87653L3.16997 7.70541L3.24345 7.55874L3.4149 7.42429L3.57411 7.38762L3.75781 7.42429L4.03948 7.70541L4.11296 7.70541L4.19868 7.66874L4.32115 7.21651L4.34564 7.13095L4.44362 7.05761L4.62923 7.01683L4.84776 7.08205L5.64379 7.5954L6.01119 7.58318L7.98289 6.58093L8.80342 6.44648L9.21981 6.47092Z" fill="#5F5F5F"/>
<path d="M6.391 13.6821L9.23222 14.8677L7.40747 17.3489L6.51347 18.0334L5.93788 18.1434L4.66423 18.2412L4.26009 18.2167L3.97842 18.1434L3.85595 18.0334L3.78247 17.7767L3.85595 17.5078L4.26009 17.2023L5.15409 16.8356L5.90114 15.6866L6.391 13.6821Z" fill="#5F5F5F"/>
<path d="M15.7475 14.4766L18.2091 15.5277L17.7804 15.9555L16.8374 17.4833L16.7027 17.6667L16.5435 17.8011L16.1149 18.0945L15.8699 18.18L14.5841 18.2289L14.2656 18.1434L14.1432 18.07L13.984 17.96L13.9595 17.8622V17.7033L14.0452 17.4222L14.3636 17.1167L15.2944 16.7011L15.7842 15.6255L15.7475 14.4766Z" fill="#5F5F5F"/>
</svg>
