<svg width="512" height="512" viewBox="0 0 512 512" fill="none" xmlns="http://www.w3.org/2000/svg">
<rect width="512" height="512" rx="100" fill="#FFA600"/>
<path d="M56 202.496V183.739C56 181.334 57.8309 179.325 60.2251 179.103L82.3005 177.049C86.4663 176.662 90.2351 174.53 93.0625 171.446C106.939 156.311 123.43 150.018 148.367 148.961C148.367 148.961 156.001 135.22 165.925 137.511C175.849 139.801 172.795 152.015 172.795 152.015C201.92 144.934 219.414 142.551 249.837 143.374C252.911 143.457 256.002 143.154 259.009 142.51C370.492 118.639 483.789 168.055 449.897 375.174H405.622C372.126 313.893 341.488 304.232 280.43 300.364C272.085 266.323 268.019 254.65 261.345 240.821C273.674 299.153 272.119 327.83 261.345 375.174H219.555C210.307 289.462 174.045 278.989 60.5474 210.491C57.7598 208.809 56 205.752 56 202.496Z" fill="white"/>
<path d="M129.283 375.174C135.571 332.668 138.173 307.464 138.068 265.751C170.004 285.206 182.278 295.582 191.879 313.083C185.337 337.399 180.852 346.521 166.688 375.174H129.283Z" fill="white"/>
<path d="M349.933 375.174H305.621C310.649 351.805 314.541 335.949 319.667 314.06C347.478 316.02 357.509 324.71 373.215 341.417C364.04 353.825 358.737 363.064 349.933 375.174Z" fill="white"/>
</svg>
