<svg width="24" height="24" viewBox="0 0 24 24" fill="none" xmlns="http://www.w3.org/2000/svg">
<path d="M1.56543 9.20819V8.22957C1.56543 8.10412 1.66095 7.9993 1.78587 7.98768L2.93763 7.88054C3.15497 7.86032 3.35161 7.74911 3.49913 7.58821C4.22313 6.79854 5.08352 6.47024 6.3846 6.41507C6.3846 6.41507 6.78287 5.69816 7.30064 5.81765C7.8184 5.93714 7.65909 6.57438 7.65909 6.57438C9.17864 6.20496 10.0914 6.08066 11.6787 6.12359C11.839 6.12793 12.0003 6.11209 12.1572 6.0785C17.9737 4.83307 23.8849 7.41127 22.1166 18.2175H19.8066C18.059 15.0202 16.4605 14.5162 13.2748 14.3143C12.8394 12.5383 12.6273 11.9293 12.2791 11.2078C12.9224 14.2512 12.8412 15.7474 12.2791 18.2175H10.0987C9.61624 13.7455 7.72429 13.1991 1.80269 9.62533C1.65725 9.53755 1.56543 9.37806 1.56543 9.20819Z" fill="#5F5F5F"/>
<path d="M5.38889 18.2175C5.71697 15.9998 5.8527 14.6848 5.84726 12.5084C7.51345 13.5235 8.15385 14.0649 8.65478 14.978C8.31345 16.2466 8.07945 16.7225 7.34046 18.2175H5.38889Z" fill="#5F5F5F"/>
<path d="M16.9011 18.2175H14.5891C14.8515 16.9982 15.0545 16.171 15.322 15.0289C16.773 15.1312 17.2963 15.5846 18.1158 16.4562C17.6371 17.1036 17.3604 17.5856 16.9011 18.2175Z" fill="#5F5F5F"/>
</svg>
