<svg width="36" height="36" viewBox="0 0 36 36" fill="none" xmlns="http://www.w3.org/2000/svg">
<path d="M8 25.5C8 26.8807 9.11929 28 10.5 28H15V30H10.5C8.01472 30 6 27.9853 6 25.5V21H8V25.5ZM30 25.5C30 27.9853 27.9853 30 25.5 30H21V28H25.5C26.8807 28 28 26.8807 28 25.5V21H30V25.5ZM15 6V8H10.5C9.11929 8 8 9.11929 8 10.5V15H6V10.5C6 8.01472 8.01472 6 10.5 6H15ZM25.5 6C27.9853 6 30 8.01472 30 10.5V15H28V10.5C28 9.11929 26.8807 8 25.5 8H21V6H25.5Z" fill="#FAFAFA"/>
<g clip-path="url(#clip0_3_482)">
<path d="M16 19C16.5523 19 17 19.4477 17 20V25C17 25.5523 16.5523 26 16 26H11C10.4477 26 10 25.5523 10 25V20C10 19.4477 10.4477 19 11 19H16ZM21 26H19V24H21V26ZM26 26H24V24H26V26ZM11 25H16V20H11V25ZM15 24H12V21H15V24ZM23 22H24V23H23V24H22V23H21V22H22V21H23V22ZM21 21H19V19H21V21ZM26 21H24V19H26V21ZM16 10C16.5523 10 17 10.4477 17 11V16C17 16.5523 16.5523 17 16 17H11C10.4477 17 10 16.5523 10 16V11C10 10.4477 10.4477 10 11 10H16ZM25 10C25.5523 10 26 10.4477 26 11V16C26 16.5523 25.5523 17 25 17H20C19.4477 17 19 16.5523 19 16V11C19 10.4477 19.4477 10 20 10H25ZM11 16H16V11H11V16ZM20 16H25V11H20V16ZM15 15H12V12H15V15ZM24 15H21V12H24V15Z" fill="#FAFAFA"/>
</g>
<defs>
<clipPath id="clip0_3_482">
<rect width="16" height="16" fill="white" transform="translate(10 10)"/>
</clipPath>
</defs>
</svg>
